# xmcd
#
# Track frame offsets: 
#        150
#        12535
#        25847
#        36395
#        49300
#        61117
#        73980
#        87982
#        101677
#        113120
#        124877
#        136565
#        146887
#        159880
#        170415
#        182827
#        197215
#        212847
#        227992
#        240817
#
# Disc length: 3355 seconds
#
# Revision: 8
# Processed by: cddbd v1.5.2PL0 Copyright (c) Steve Scherf et al.
# Submitted via: ExactAudioCopy v1.0b3
#
DISCID=1f0d1914
DTITLE=Charles, Ray - The Best Of Ray Charles - The Atlantic Years
DYEAR=1994
DGENRE=Soul
TTITLE0=It Should've Been Me
TTITLE1=Don't You Know
TTITLE2=Blackjack
TTITLE3=I've Got A Woman
TTITLE4=What Would I Do Without You
TTITLE5=Greenbacks
TTITLE6=Come Back
TTITLE7=A Fool For You
TTITLE8=This Little Girl Of Mine
TTITLE9=Hallelujah I Love Her So
TTITLE10=Lonely Avenue
TTITLE11=It's Alright
TTITLE12=Ain't That Love
TTITLE13=Swanee River Rock (Talkin' 'Bout That River)
TTITLE14=That's Enough
TTITLE15=What'd I Say (Part I)
TTITLE16=(Night Time Is) The Right Time
TTITLE17=Drown In My Own Tears
TTITLE18=Tell The Truth (Live)
TTITLE19=Just For A Thrill
EXTD=ID3G:   0
EXTT0=
EXTT1=
EXTT2=
EXTT3=
EXTT4=
EXTT5=
EXTT6=
EXTT7=
EXTT8=
EXTT9=
EXTT10=
EXTT11=
EXTT12=
EXTT13=
EXTT14=
EXTT15=
EXTT16=
EXTT17=
EXTT18=
EXTT19=
PLAYORDER=
